<svg xmlns="http://www.w3.org/2000/svg" width="44" height="35.75" viewBox="0 0 44 35.75"><defs><style>.a{fill:#fff;}</style></defs><g transform="translate(13 -111)"><path d="M48.742,146.75a17.877,17.877,0,1,1,18.164-17.875A18.042,18.042,0,0,1,48.742,146.75Zm0-35.212A17.339,17.339,0,1,0,66.36,128.875,17.5,17.5,0,0,0,48.742,111.538Zm0,34.135a16.8,16.8,0,1,1,17.07-16.8A16.955,16.955,0,0,1,48.742,145.673Zm0-33.058a16.262,16.262,0,1,0,16.523,16.26A16.412,16.412,0,0,0,48.742,112.615Z" transform="translate(-39.742)"/><path d="M34.708,222.724V211.938a.881.881,0,0,0-.9-.9H20.786a10.179,10.179,0,0,0-15.8,0H-7.6a.88.88,0,0,0-.9.9v10.785a.881.881,0,0,0,.9.9H4.708a10.182,10.182,0,0,0,16.36,0H33.81a.88.88,0,0,0,.9-.9Z" transform="translate(-4.104 -88.293)"/><path d="M8.784,224.033a10.508,10.508,0,0,1-8.376-4.12h-12.12A1.255,1.255,0,0,1-13,218.621V207.831a1.254,1.254,0,0,1,1.289-1.293H.7a10.57,10.57,0,0,1,16.165,0H29.711A1.255,1.255,0,0,1,31,207.831v10.789a1.254,1.254,0,0,1-1.289,1.293H17.16A10.508,10.508,0,0,1,8.784,224.033Zm-20.5-17.364a1.127,1.127,0,0,0-1.158,1.162v10.789a1.127,1.127,0,0,0,1.158,1.162H.473l.02.026a10.443,10.443,0,0,0,16.584,0l.02-.026H29.711a1.127,1.127,0,0,0,1.158-1.162V207.831a1.127,1.127,0,0,0-1.158-1.162H16.806l-.02-.023a10.44,10.44,0,0,0-16,0l-.02.023Zm20.5,17.036a10.176,10.176,0,0,1-8.214-4.12H-11.711a.872.872,0,0,1-.843-.486,1.207,1.207,0,0,1-.119-.479V207.831a.875.875,0,0,1,.484-.846,1.2,1.2,0,0,1,.478-.119H.855a10.245,10.245,0,0,1,15.86,0h13a.871.871,0,0,1,.843.486,1.209,1.209,0,0,1,.119.479v10.789a.875.875,0,0,1-.484.846,1.2,1.2,0,0,1-.478.119H17A10.174,10.174,0,0,1,8.784,223.706ZM.886,207h-12.6a1.067,1.067,0,0,0-.419.106.751.751,0,0,0-.412.728v10.789a1.076,1.076,0,0,0,.105.421.748.748,0,0,0,.726.413H.635l.02.026a10.118,10.118,0,0,0,16.258,0l.02-.026H29.711a1.068,1.068,0,0,0,.419-.106.751.751,0,0,0,.412-.728V207.831a1.077,1.077,0,0,0-.105-.421.748.748,0,0,0-.726-.413H16.653l-.02-.024a10.114,10.114,0,0,0-15.7,0L.917,207Zm7.9,16.382a9.853,9.853,0,0,1-7.973-4.015l-.078-.1H-11.711a.6.6,0,0,1-.637-.638v-10.79a.6.6,0,0,1,.636-.639H1.008l.078-.1a9.92,9.92,0,0,1,15.4,0l.078.1H29.711a.6.6,0,0,1,.637.638v10.79a.6.6,0,0,1-.636.639H16.835l-.078.105A9.852,9.852,0,0,1,8.784,223.38Zm-20.5-16.056a.472.472,0,0,0-.506.508v10.789a.472.472,0,0,0,.506.508H.8l.117.158a9.793,9.793,0,0,0,15.737,0l.117-.158H29.711a.472.472,0,0,0,.506-.508V207.831a.472.472,0,0,0-.506-.508H16.5l-.117-.144a9.789,9.789,0,0,0-15.193,0l-.117.144Z" transform="translate(0 -84.189)"/><path class="a" d="M128.664,267.608c2.986,0,5.6-2.118,5.6-5.971s-2.619-5.971-5.6-5.971-5.6,2.118-5.6,5.971,2.619,5.971,5.6,5.971Zm0-1.8c-1.718,0-2.936-1.268-2.936-4.12,0-2.869,1.218-4.186,2.936-4.186,1.7,0,2.935,1.318,2.935,4.186,0,2.852-1.234,4.12-2.935,4.12Zm7.122,1.668h7.872V265.64h-5.3v-3.2h3.669v-1.784h-3.669v-2.969h5.12V255.8h-7.689v11.675Z" transform="translate(-124.359 -132.509)"/><path d="M115.066,154.254l.411-.392-.374-.761.776-.74.749.4.5-.473-.129-.135-2.833-1.436-.529.5,1.3,2.894.129.135Zm-.729-2.713.007-.006,1.085.585-.552.527-.539-1.105Zm3.119.548.608-.364-.591-.986.281-.168c.7-.42.929-.943.576-1.532s-.914-.633-1.6-.22l-.9.542,1.634,2.728Zm-.765-2.656.281-.168c.386-.231.576-.144.751.148s.156.526-.214.748l-.281.168-.537-.9Zm3.126,1.322.672-.225-.365-1.09.31-.1c.776-.259,1.11-.721.892-1.372s-.757-.815-1.519-.56l-1,.334,1.009,3.016ZM119.642,148l.31-.1c.427-.143.593-.016.7.307s.039.547-.37.684l-.31.1-.332-.991Zm4.556,1.765.646-.07-.02-.185-.793-1.116a.9.9,0,0,0,.412-.918c-.066-.61-.538-.878-1.315-.794l-1.061.115.343,3.162.7-.076-.134-1.238.411-.045.807,1.165Zm-1.373-2.543.339-.037c.37-.04.541.1.574.408s-.1.491-.473.531l-.339.037-.1-.94Zm3.745,2.7a1.63,1.63,0,1,0-1.3-1.815,1.506,1.506,0,0,0,1.3,1.815Zm.065-.486c-.464-.062-.747-.448-.644-1.218s.48-1.086.944-1.024.745.462.641,1.236-.482,1.068-.942,1.006Zm2.495,1.08.675.27,2.082-2.392.069-.173-.544-.218-1.587,1.89-.009,0,.157-2.462-.629-.251-.069.173-.145,3.166Zm1.964.879,1.776,1.2.28-.414-1.2-.81.489-.722.828.56.273-.4-.828-.56.453-.67,1.155.782.288-.425-1.735-1.174-1.783,2.634Zm2.118,1.481.672.722a1.47,1.47,0,0,0,2.325.145,1.44,1.44,0,0,0,.016-2.3l-.684-.735-2.329,2.166Zm.849.179,1.59-1.479.189.2c.452.486.44.906-.132,1.439s-1.009.523-1.458.041l-.189-.2Z" transform="translate(-115.774 -32.524)"/><path d="M96.6,411.455l.347.449.8-.293.656.849-.479.7.419.543.147-.114,1.722-2.668-.447-.579-3.014,1-.147.114Zm2.774-.444.006.007-.694,1.019-.467-.6,1.155-.422Zm-.148,3.642.569.422.685-.923.263.195c.657.487,1.227.5,1.635-.054s.235-1.087-.411-1.566l-.847-.628-1.9,2.554Zm2.161-1.723.263.195c.361.268.353.477.15.751s-.426.346-.773.088l-.263-.195.623-.839Zm.8,3.821.659.262.425-1.068.3.121c.76.3,1.313.165,1.567-.473s-.052-1.111-.8-1.408l-.98-.389-1.175,2.956Zm1.645-2.221.3.121c.418.166.464.37.338.687s-.323.444-.724.284l-.3-.121.386-.971Zm3.533,3.732.644.082.024-.185-.511-1.27a.9.9,0,0,0,.615-.8c.078-.608-.319-.98-1.094-1.079l-1.059-.135-.4,3.155.7.09.158-1.235.41.052.514,1.32Zm-.743-2.793.338.043c.37.047.5.224.464.531s-.214.454-.583.406l-.338-.043.12-.937Zm4.031,2.84a1.63,1.63,0,1,0-1.72-1.42,1.506,1.506,0,0,0,1.72,1.42Zm-.062-.487c-.464.059-.837-.241-.935-1.012s.185-1.173.649-1.233.839.255.937,1.03-.191,1.156-.651,1.214Zm3.507-.335.669-.284-.21-3.164-.073-.171-.539.229.206,2.46-.008,0-1.624-1.857-.623.265.073.171,2.129,2.348Zm2.771-1.31,1.691-1.318-.307-.394-1.14.888-.536-.688.788-.614-.3-.383-.788.614-.5-.638,1.1-.857-.316-.405-1.652,1.287,1.955,2.508Zm2.686-2.227.612-.773a1.47,1.47,0,0,0-.208-2.321,1.44,1.44,0,0,0-2.274.332l-.624.787,2.493,1.975Zm.049-.866-1.7-1.349.172-.217c.412-.52.83-.572,1.442-.086s.669.919.26,1.435l-.172.217Z" transform="translate(-100.214 -274.126)"/></g></svg>